<svg width="242" height="32" viewBox="0 0 242 32" fill="none" xmlns="http://www.w3.org/2000/svg">
<path d="M9.60794 13.705V11.9487H13.8103C14.4091 11.9487 14.9251 11.8421 15.3582 11.6287C15.7913 11.4152 16.1253 11.1144 16.3604 10.7258C16.596 10.3376 16.7138 9.88061 16.7138 9.35534C16.7138 8.83016 16.596 8.3762 16.3604 7.99299C16.1253 7.61006 15.7913 7.31182 15.3582 7.09844C14.9251 6.88505 14.4091 6.77832 13.8103 6.77832H9.62393V5.0221H13.9066C14.9115 5.0221 15.7832 5.20548 16.5211 5.57187C17.2591 5.93872 17.8336 6.44474 18.2455 7.09021C18.6566 7.73605 18.863 8.49107 18.863 9.35534C18.863 10.2199 18.6566 10.9777 18.2455 11.6287C17.8336 12.2799 17.2591 12.7886 16.5211 13.1551C15.7832 13.5218 14.9115 13.705 13.9066 13.705H9.60794ZM8.37282 16.1343V3.23299H10.4901V16.1343H8.37282ZM4.95641 13.705C3.96185 13.705 3.09289 13.5218 2.34987 13.1551C1.60659 12.7886 1.02908 12.2799 0.617612 11.6287C0.20578 10.9777 0 10.2199 0 9.35534C0 8.49107 0.20578 7.73605 0.617612 7.09021C1.02908 6.44474 1.60659 5.93872 2.34987 5.57187C3.09289 5.20548 3.96185 5.0221 4.95641 5.0221H9.22297V6.77832H5.03651C4.44831 6.77832 3.93784 6.88505 3.50472 7.09844C3.07161 7.31182 2.73733 7.61006 2.50223 7.99299C2.26695 8.3762 2.1494 8.83016 2.1494 9.35534C2.1494 9.88061 2.26695 10.3376 2.50223 10.7258C2.73733 11.1144 3.07161 11.4152 3.50472 11.6287C3.93784 11.8421 4.44831 11.9487 5.03651 11.9487H9.23895V13.705H4.95641Z" fill="#28272B"/>
<path d="M30.9693 8.78142V10.5869H21.7143V8.78142H30.9693ZM23.1099 9.68411V15.1828L22.0997 13.9681H31.4342V15.8394H20.9443V9.68411V3.52896H31.3548V5.40004H22.0997L23.1099 4.18546V9.68411Z" fill="#28272B"/>
<path d="M35.9185 3.52863H46.7298V15.0019H44.6127V4.44777L45.5744 5.43261H37.0574L37.9717 4.74321C38.0256 5.34512 38.063 5.94143 38.084 6.53232C38.105 7.12321 38.116 7.68129 38.116 8.20656C38.116 9.58536 38.0201 10.7617 37.8274 11.7355C37.6346 12.7095 37.3515 13.4536 36.977 13.9678C36.6026 14.4823 36.1486 14.7393 35.6143 14.7393L34.732 13.9678C35.2133 13.4207 35.5686 12.6382 35.7988 11.6207C36.0281 10.6029 36.1431 9.32273 36.1431 7.7798C36.1431 7.11246 36.1221 6.41745 36.0792 5.69524C36.0363 4.97304 35.9833 4.25084 35.9185 3.52863ZM33.2725 18.3667V13.935H35.1649L36.4162 13.9678H45.3662L45.864 13.935H48.847V18.3667H46.8741V15.839H35.2453V18.3667H33.2725Z" fill="#28272B"/>
<path d="M60.8268 8.78142V10.5869H51.5718V8.78142H60.8268ZM52.9674 9.68411V15.1828L51.9572 13.9681H61.2926V15.8394H50.8027V9.68411V3.52896H61.2122V5.40004H51.9572L52.9674 4.18546V9.68411Z" fill="#28272B"/>
<path d="M70.3609 3.52902C71.2593 3.52902 72.0372 3.69312 72.6947 4.02152C73.3521 4.34963 73.8606 4.80667 74.2183 5.39195C74.576 5.97751 74.7563 6.65322 74.7563 7.41899C74.7563 8.18522 74.576 8.86093 74.2183 9.44621C73.8606 10.0317 73.3521 10.4884 72.6947 10.8167C72.0372 11.145 71.2593 11.3091 70.3609 11.3091H64.9559V9.43793H70.2809C71.0083 9.43793 71.5774 9.25736 71.9885 8.89631C72.4004 8.53517 72.6064 8.04285 72.6064 7.41899C72.6064 6.79531 72.4004 6.3029 71.9885 5.94185C71.5774 5.58071 71.0083 5.40014 70.2809 5.40014H65.1646L66.1108 4.31689V15.8394H63.9932V3.52902H70.3609Z" fill="#28272B"/>
<path d="M77.3383 13.0162V11.2271H85.7434V13.0162H77.3383ZM82.9202 3.52895L88.6942 15.8394H86.4328L81.1886 4.34957H82.0057L76.7614 15.8394H74.499L80.274 3.52895H82.9202Z" fill="#28272B"/>
<path d="M93.363 3.52866H104.238V15.839H102.121V4.46419L103.084 5.44893H94.5504L95.4483 4.71046C95.5341 5.6077 95.598 6.45597 95.6409 7.25457C95.6838 8.05351 95.7047 8.80301 95.7047 9.5032C95.7047 11.0354 95.577 12.2829 95.3206 13.2457C95.0632 14.2087 94.6659 14.9173 94.1256 15.3711C93.5853 15.8253 92.8822 16.0522 92.0161 16.0522C91.6838 16.0522 91.3581 16.0167 91.0379 15.9456C90.7166 15.8743 90.4283 15.768 90.1719 15.6257V13.7873C90.6197 13.9734 91.0434 14.0663 91.4384 14.0663C92.2296 14.0663 92.804 13.6835 93.1628 12.9173C93.5215 12.1516 93.6998 10.9095 93.6998 9.19139C93.6998 8.44729 93.6733 7.59666 93.6194 6.63906C93.5666 5.68169 93.4808 4.6447 93.363 3.52866Z" fill="#28272B"/>
<path d="M107.45 15.8394V3.52899H109.567V15.0514L108.621 14.083H113.658C114.396 14.083 114.978 13.8888 115.406 13.5003C115.834 13.1121 116.048 12.595 116.048 11.9492C116.048 11.2926 115.834 10.7702 115.406 10.3816C114.978 9.99336 114.396 9.79893 113.658 9.79893H108.413V8.04272H113.754C114.664 8.04272 115.449 8.20693 116.112 8.53511C116.775 8.86341 117.288 9.32037 117.651 9.90574C118.015 10.4912 118.197 11.1723 118.197 11.9492C118.197 12.7152 118.015 13.391 117.651 13.9763C117.288 14.5618 116.775 15.0185 116.112 15.3468C115.449 15.6751 114.664 15.8394 113.754 15.8394H107.45Z" fill="#28272B"/>
<path d="M130.116 3.52903H132.233V15.8394H130.116V3.52903ZM121.471 8.68291H131.127V10.5869H121.471V8.68291ZM120.332 3.52903H122.449V15.8394H120.332V3.52903Z" fill="#28272B"/>
<path d="M147.509 3.52903H149.626V15.8394H147.509V3.52903ZM135.447 15.8394V3.52903H137.564V15.0516L136.618 14.0832H141.655C142.393 14.0832 142.974 13.8889 143.402 13.5003C143.829 13.1122 144.044 12.595 144.044 11.9494C144.044 11.2927 143.829 10.7703 143.402 10.3817C142.974 9.99341 142.393 9.79898 141.655 9.79898H136.408V8.04284H141.75C142.659 8.04284 143.446 8.20694 144.108 8.53528C144.771 8.86348 145.285 9.3205 145.648 9.90579C146.012 10.4914 146.194 11.1725 146.194 11.9494C146.194 12.7154 146.012 13.3911 145.648 13.9764C145.285 14.562 144.771 15.0186 144.108 15.3469C143.446 15.6753 142.659 15.8394 141.75 15.8394H135.447Z" fill="#28272B"/>
<path d="M155.501 -0.000185013H157.235C157.353 0.415838 157.558 0.735858 157.851 0.960022C158.146 1.18449 158.523 1.29665 158.983 1.29665C159.453 1.29665 159.832 1.18449 160.122 0.960022C160.411 0.735858 160.614 0.415838 160.732 -0.000185013H162.463C162.281 0.875336 161.88 1.52911 161.26 1.96129C160.641 2.39376 159.881 2.60962 158.983 2.60962C158.084 2.60962 157.325 2.39376 156.705 1.96129C156.084 1.52911 155.683 0.875336 155.501 -0.000185013ZM152.839 15.8394V3.52892H154.892V14.8216L154.171 14.6903L162.558 3.52892H165.318V15.8394H163.265V4.44807L163.986 4.5794L155.534 15.8394H152.839Z" fill="#28272B"/>
<path d="M185.737 3.52853V14.5752L185.095 13.9184H187.854V18.3667H185.881V15.5271L186.842 15.839H174.027V3.52853H176.144V14.5752L175.504 13.9184H184.277L183.635 14.5752V3.52853H185.737Z" fill="#28272B"/>
<path d="M199.832 8.78158V10.587H190.577V8.78158H199.832ZM191.973 9.68419V15.1828L190.962 13.9681H200.298V15.8394H189.807V9.68419V3.52902H200.217V5.40011H190.962L191.973 4.18557V9.68419Z" fill="#28272B"/>
<path d="M212.782 3.52914H214.9V15.8394H212.782V3.52914ZM204.139 8.68308H213.793V10.5869H204.139V8.68308ZM202.998 3.52914H205.115V15.8394H202.998V3.52914Z" fill="#28272B"/>
<path d="M221.953 4.53026H224.069V15.8394H221.953V4.53026ZM216.979 3.52907H229.042V5.43292H216.979V3.52907Z" fill="#28272B"/>
<path d="M237.478 3.52908C238.376 3.52908 239.154 3.69307 239.811 4.02144C240.471 4.34961 240.978 4.80674 241.336 5.39203C241.694 5.97753 241.873 6.65317 241.873 7.41897C241.873 8.18516 241.694 8.86101 241.336 9.4461C240.978 10.0316 240.471 10.4885 239.811 10.8167C239.154 11.1451 238.376 11.3091 237.478 11.3091H232.073V9.43794H237.398C238.125 9.43794 238.695 9.25744 239.105 8.89643C239.518 8.53523 239.724 8.04287 239.724 7.41897C239.724 6.79527 239.518 6.30291 239.105 5.9419C238.695 5.5807 238.125 5.40019 237.398 5.40019H232.281L233.228 4.31697V15.8394H231.11V3.52908H237.478Z" fill="#28272B"/>
<path d="M0.488549 26.0303H4.10954C4.61152 26.0303 5.03733 26.1174 5.38687 26.2917C5.73641 26.4659 6.0022 26.7075 6.18459 27.0163C6.36672 27.3252 6.45796 27.6874 6.45796 28.1032C6.45796 28.5129 6.36224 28.8722 6.17107 29.1809C5.97981 29.4897 5.708 29.7298 5.35545 29.9009C5.00289 30.0722 4.58759 30.1577 4.10954 30.1577H0.0224609V26.5256V23.2787H5.90218V24.2876H0.766292L1.21457 23.6731V26.5072V29.7909L0.739445 29.1855H4.00204C4.3904 29.1855 4.69966 29.0861 4.92974 28.8874C5.15963 28.6888 5.2748 28.4181 5.2748 28.0757C5.2748 27.7333 5.15826 27.4627 4.92526 27.2639C4.69217 27.0653 4.38144 26.9659 3.99309 26.9659H0.488549V26.0303Z" fill="#28272B"/>
<path d="M13.2875 26.2138V27.2227H8.11582V26.2138H13.2875ZM8.89556 26.7182V29.7909L8.33083 29.1121H13.5475V30.1577H7.68555V26.7182V23.2787H13.5026V24.3243H8.33083L8.89556 23.6455V26.7182Z" fill="#28272B"/>
<path d="M22.0592 27.4342C21.9998 27.9967 21.8071 28.4935 21.4811 28.9246C21.1559 29.3557 20.7303 29.6904 20.2042 29.9289C19.6781 30.1675 19.078 30.2866 18.4021 30.2866C17.6495 30.2866 16.9892 30.1369 16.422 29.8371C15.854 29.5377 15.4118 29.1204 15.0952 28.5852C14.7783 28.0503 14.6201 27.4281 14.6201 26.7187C14.6201 26.0094 14.7783 25.3873 15.0952 24.8522C15.4118 24.3172 15.854 23.8999 16.422 23.6001C16.9892 23.3007 17.6495 23.1507 18.4021 23.1507C19.078 23.1507 19.6781 23.27 20.2042 23.5084C20.7303 23.7469 21.1559 24.0802 21.4811 24.5082C21.8071 24.9363 21.9998 25.4346 22.0592 26.0033H20.8673C20.8015 25.6364 20.66 25.3215 20.4417 25.0585C20.2234 24.7957 19.9411 24.5923 19.595 24.4485C19.2479 24.305 18.8479 24.2331 18.3939 24.2331C17.8678 24.2331 17.4121 24.3339 17.0266 24.5357C16.6412 24.7375 16.3443 25.025 16.1349 25.3979C15.9256 25.7709 15.8212 26.2113 15.8212 26.7187C15.8212 27.2263 15.9256 27.6666 16.1349 28.0394C16.3443 28.4126 16.6412 28.6999 17.0266 28.9017C17.4121 29.1034 17.8678 29.2043 18.3939 29.2043C18.8479 29.2043 19.2479 29.1341 19.595 28.9933C19.9411 28.8528 20.2234 28.6494 20.4417 28.3834C20.66 28.1175 20.8015 27.801 20.8673 27.4342H22.0592Z" fill="#28272B"/>
<path d="M30.095 23.2787V30.1577H28.9204V23.8015L29.4584 24.3518H24.1253L24.6633 23.8015V30.1577H23.4805V23.2787H30.095Z" fill="#28272B"/>
<path d="M31.9189 30.1577V23.2787H33.0661V29.5891L32.6624 29.5157L37.3507 23.2787H38.8924V30.1577H37.7452V23.7923L38.148 23.8657L33.4242 30.1577H31.9189Z" fill="#28272B"/>
<path d="M41.8502 23.2786H47.9277V30.1576H46.744V23.8014L47.2819 24.3517H42.5133L43.0156 23.9389C43.0631 24.4404 43.0987 24.9143 43.1234 25.3606C43.1472 25.8071 43.159 26.226 43.159 26.6172C43.159 27.4734 43.0869 28.1704 42.9435 28.7084C42.8001 29.2466 42.5772 29.6425 42.2758 29.8963C41.9744 30.15 41.5817 30.2769 41.0976 30.2769C40.9122 30.2769 40.7295 30.2569 40.5505 30.2172C40.3715 30.1774 40.2098 30.118 40.0664 30.0384V29.0111C40.3176 29.1152 40.5532 29.167 40.7743 29.167C41.2163 29.167 41.5378 28.9531 41.7378 28.525C41.9388 28.0971 42.0383 27.403 42.0383 26.4429C42.0383 26.0271 42.0237 25.5518 41.9936 25.0166C41.9634 24.4816 41.916 23.9022 41.8502 23.2786Z" fill="#28272B"/>
<path d="M53.2518 29.2043C53.7953 29.2043 54.2638 29.1034 54.6584 28.9017C55.053 28.6999 55.3589 28.4126 55.5772 28.0394C55.7955 27.6666 55.9042 27.2263 55.9042 26.7187C55.9042 26.2113 55.7955 25.7709 55.5772 25.3979C55.3589 25.025 55.053 24.7375 54.6584 24.5357C54.2638 24.3339 53.7953 24.2331 53.2518 24.2331C52.7139 24.2331 52.2462 24.3339 51.8489 24.5357C51.4516 24.7375 51.1438 25.025 50.9255 25.3979C50.7072 25.7709 50.5985 26.2113 50.5985 26.7187C50.5985 27.2263 50.7072 27.6666 50.9255 28.0394C51.1438 28.4126 51.4516 28.6999 51.8489 28.9017C52.2462 29.1034 52.7139 29.2043 53.2518 29.2043ZM53.2518 30.2866C52.4864 30.2866 51.8142 30.1369 51.2342 29.8371C50.6551 29.5377 50.204 29.1204 49.8815 28.5852C49.5582 28.0503 49.3975 27.4281 49.3975 26.7187C49.3975 26.0094 49.5582 25.3873 49.8815 24.8522C50.204 24.3172 50.6551 23.8999 51.2342 23.6001C51.8142 23.3007 52.4864 23.1507 53.2518 23.1507C54.0163 23.1507 54.6885 23.3007 55.2685 23.6001C55.8476 23.8999 56.2988 24.3172 56.6212 24.8522C56.9445 25.3873 57.1053 26.0094 57.1053 26.7187C57.1053 27.4281 56.9445 28.0503 56.6212 28.5852C56.2988 29.1204 55.8476 29.5377 55.2685 29.8371C54.6885 30.1369 54.0163 30.2866 53.2518 30.2866Z" fill="#28272B"/>
<path d="M60.5079 23.8382H61.6906V30.1577H60.5079V23.8382ZM57.7285 23.2787H64.4691V24.3426H57.7285V23.2787Z" fill="#28272B"/>
<path d="M71.1265 23.2787H72.3102V30.1577H71.1265V23.2787ZM66.2958 26.1586H71.6919V27.2227H66.2958V26.1586ZM65.6592 23.2787H66.8429V30.1577H65.6592V23.2787Z" fill="#28272B"/>
<path d="M80.8785 23.2787H82.0617V30.1577H80.8785V23.2787ZM74.1377 30.1577V23.2787H75.321V29.7175L74.7925 29.1763H77.6065C78.0192 29.1763 78.3442 29.0679 78.5833 28.8507C78.8235 28.6336 78.9421 28.3448 78.9421 27.984C78.9421 27.617 78.8235 27.3252 78.5833 27.108C78.3442 26.891 78.0192 26.7824 77.6065 26.7824H74.6758V25.801H77.6605C78.1677 25.801 78.6074 25.8927 78.9787 26.0761C79.3481 26.2596 79.6345 26.515 79.8389 26.842C80.0414 27.1692 80.1437 27.5498 80.1437 27.984C80.1437 28.4121 80.0414 28.7897 79.8389 29.1167C79.6345 29.4439 79.3481 29.6991 78.9787 29.8825C78.6074 30.066 78.1677 30.1577 77.6605 30.1577H74.1377Z" fill="#28272B"/>
<path d="M87.2448 26.92V26.2229L90.3813 30.1577H88.9212L86.5005 27.0393H87.0204L84.5916 30.1577H83.166L86.3127 26.2413V26.9017L83.3904 23.2787H84.8597L87.0742 26.1129H86.5361L88.7324 23.2787H90.158L87.2448 26.92Z" fill="#28272B"/>
<path d="M95.3379 28.58V27.5804H100.034V28.58H95.3379ZM98.4565 23.2787L101.684 30.1577H100.42L97.4889 23.7372H97.9456L95.0147 30.1577H93.751L96.978 23.2787H98.4565Z" fill="#28272B"/>
<path d="M103.922 29.8183L103.466 29.1855H107.078C107.448 29.1855 107.736 29.0984 107.943 28.9241C108.148 28.7499 108.251 28.5007 108.251 28.1765C108.251 27.8341 108.131 27.5682 107.888 27.3785C107.646 27.1892 107.289 27.0943 106.817 27.0943H103.411V26.1586H106.701C107.018 26.1586 107.28 26.0685 107.49 25.8881C107.698 25.7078 107.802 25.4494 107.802 25.113C107.802 24.8624 107.716 24.656 107.543 24.4939C107.37 24.3321 107.118 24.2508 106.791 24.2508H103.466L103.922 23.6179V26.6265V29.8183ZM107.041 26.7457L107.158 26.4797C107.689 26.4859 108.124 26.5684 108.462 26.7274C108.799 26.8864 109.048 27.1004 109.205 27.3695C109.365 27.6385 109.443 27.9413 109.443 28.2774C109.443 28.6443 109.358 28.9685 109.188 29.2497C109.017 29.5311 108.768 29.7527 108.44 29.9147C108.11 30.0767 107.702 30.1577 107.211 30.1577H102.729V26.6265V23.2787H107.05C107.671 23.2787 108.151 23.427 108.489 23.7235C108.827 24.0201 108.996 24.4282 108.996 24.9479C108.996 25.2231 108.93 25.4907 108.803 25.7506C108.674 26.0105 108.468 26.2306 108.184 26.4109C107.901 26.5914 107.519 26.7031 107.041 26.7457Z" fill="#28272B"/>
<path d="M110.897 30.1577V23.2787H112.045V29.5891L111.641 29.5157L116.33 23.2787H117.871V30.1577H116.724V23.7922L117.127 23.8658L112.404 30.1577H110.897Z" fill="#28272B"/>
<path d="M120.615 28.5802V27.5805H125.311V28.5802H120.615ZM123.734 23.2787L126.96 30.1577H125.697L122.766 23.7373H123.222L120.291 30.1577H119.029L122.255 23.2787H123.734Z" fill="#28272B"/>
<path d="M134.658 23.2782V29.4511L134.301 29.0842H135.841V31.5698H134.738V29.983L135.276 30.1573H128.115V23.2782H129.298V29.4511L128.94 29.0842H133.842L133.484 29.4511V23.2782H134.658Z" fill="#28272B"/>
<path d="M137.072 30.1577V23.2787H138.221V29.5892L137.816 29.5157L142.505 23.2787H144.045V30.1577H142.898V23.7924L143.302 23.8658L138.578 30.1577H137.072Z" fill="#28272B"/>
<path d="M149.37 29.2043C149.913 29.2043 150.382 29.1035 150.776 28.9016C151.171 28.6999 151.477 28.4126 151.695 28.0395C151.914 27.6666 152.023 27.2263 152.023 26.7187C152.023 26.2112 151.914 25.771 151.695 25.3979C151.477 25.0251 151.171 24.7375 150.776 24.5358C150.382 24.3339 149.913 24.233 149.37 24.233C148.832 24.233 148.365 24.3339 147.967 24.5358C147.569 24.7375 147.263 25.0251 147.044 25.3979C146.825 25.771 146.716 26.2112 146.716 26.7187C146.716 27.2263 146.825 27.6666 147.044 28.0395C147.263 28.4126 147.569 28.6999 147.967 28.9016C148.365 29.1035 148.832 29.2043 149.37 29.2043ZM149.37 30.2866C148.605 30.2866 147.932 30.137 147.354 29.8372C146.774 29.5377 146.323 29.1204 146 28.5852C145.677 28.0502 145.516 27.428 145.516 26.7187C145.516 26.0094 145.677 25.3873 146 24.8522C146.323 24.3172 146.774 23.8998 147.354 23.6001C147.932 23.3007 148.605 23.1508 149.37 23.1508C150.134 23.1508 150.807 23.3007 151.387 23.6001C151.965 23.8998 152.417 24.3172 152.74 24.8522C153.062 25.3873 153.224 26.0094 153.224 26.7187C153.224 27.428 153.062 28.0502 152.74 28.5852C152.417 29.1204 151.965 29.5377 151.387 29.8372C150.807 30.137 150.134 30.2866 149.37 30.2866Z" fill="#28272B"/>
<path d="M160.162 23.2786H161.345V30.1577H160.162V23.2786ZM155.331 26.1586H160.727V27.2227H155.331V26.1586ZM154.694 23.2786H155.877V30.1577H154.694V23.2786Z" fill="#28272B"/>
<path d="M168.641 23.2786H169.825V30.1577H168.641V23.2786ZM163.811 26.1585H169.207V27.2226H163.811V26.1585ZM163.174 23.2786H164.358V30.1577H163.174V23.2786Z" fill="#28272B"/>
<path d="M178.392 23.2786H179.576V30.1577H178.392V23.2786ZM171.652 30.1577V23.2786H172.835V29.7174L172.307 29.1763H175.121C175.534 29.1763 175.859 29.0679 176.098 28.8507C176.337 28.6337 176.457 28.3448 176.457 27.9841C176.457 27.6171 176.337 27.3251 176.098 27.1081C175.859 26.891 175.534 26.7824 175.121 26.7824H172.19V25.8011H175.174C175.682 25.8011 176.121 25.8927 176.493 26.0761C176.862 26.2597 177.15 26.515 177.353 26.8419C177.556 27.1692 177.659 27.5499 177.659 27.9841C177.659 28.4121 177.556 28.7896 177.353 29.1166C177.15 29.444 176.862 29.6992 176.493 29.8825C176.121 30.066 175.682 30.1577 175.174 30.1577H171.652Z" fill="#28272B"/>
<path d="M184.759 26.92V26.2228L187.896 30.1577H186.436L184.015 27.0392H184.535L182.106 30.1577H180.68L183.826 26.2412V26.9017L180.906 23.2786H182.374L184.588 26.1129H184.051L186.247 23.2786H187.672L184.759 26.92Z" fill="#28272B"/>
<path d="M199.045 27.4343C198.986 27.9968 198.793 28.4935 198.466 28.9246C198.142 29.3557 197.715 29.6904 197.19 29.9289C196.663 30.1675 196.063 30.2866 195.388 30.2866C194.635 30.2866 193.975 30.1369 193.409 29.8371C192.84 29.5377 192.398 29.1204 192.081 28.5852C191.764 28.0503 191.605 27.4281 191.605 26.7187C191.605 26.0094 191.764 25.3873 192.081 24.8522C192.398 24.3172 192.84 23.8998 193.409 23.6002C193.975 23.3007 194.635 23.1507 195.388 23.1507C196.063 23.1507 196.663 23.27 197.19 23.5084C197.715 23.7468 198.142 24.0802 198.466 24.5083C198.793 24.9364 198.986 25.4345 199.045 26.0034H197.853C197.787 25.6364 197.646 25.3214 197.427 25.0586C197.21 24.7957 196.927 24.5923 196.579 24.4486C196.234 24.305 195.834 24.2331 195.378 24.2331C194.853 24.2331 194.398 24.3339 194.012 24.5357C193.627 24.7376 193.33 25.025 193.121 25.398C192.911 25.771 192.806 26.2113 192.806 26.7187C192.806 27.2263 192.911 27.6666 193.121 28.0395C193.33 28.4126 193.627 28.6999 194.012 28.9017C194.398 29.1034 194.853 29.2043 195.378 29.2043C195.834 29.2043 196.234 29.1341 196.579 28.9934C196.927 28.8528 197.21 28.6494 197.427 28.3834C197.646 28.1174 197.787 27.8011 197.853 27.4343H199.045Z" fill="#28272B"/>
<path d="M200.465 30.1577V23.2786H201.612V29.5891L201.21 29.5157L205.898 23.2786H207.439V30.1577H206.291V23.7924L206.695 23.8658L201.971 30.1577H200.465Z" fill="#28272B"/>
<path d="M216.353 27.4341C216.292 27.9967 216.101 28.4935 215.775 28.9246C215.448 29.3557 215.023 29.6904 214.497 29.9289C213.971 30.1675 213.37 30.2866 212.696 30.2866C211.943 30.2866 211.282 30.1369 210.715 29.8371C210.146 29.5377 209.704 29.1204 209.388 28.5852C209.071 28.0503 208.914 27.4281 208.914 26.7188C208.914 26.0093 209.071 25.3873 209.388 24.8523C209.704 24.3172 210.146 23.8998 210.715 23.6C211.282 23.3007 211.943 23.1508 212.696 23.1508C213.37 23.1508 213.971 23.2699 214.497 23.5084C215.023 23.7468 215.448 24.0802 215.775 24.5082C216.101 24.9363 216.292 25.4345 216.353 26.0033H215.16C215.094 25.6364 214.953 25.3214 214.735 25.0585C214.517 24.7957 214.234 24.5924 213.887 24.4486C213.54 24.3051 213.141 24.233 212.687 24.233C212.161 24.233 211.705 24.334 211.319 24.5357C210.935 24.7375 210.638 25.025 210.429 25.3979C210.219 25.7711 210.114 26.2113 210.114 26.7188C210.114 27.2262 210.219 27.6666 210.429 28.0394C210.638 28.4126 210.935 28.6999 211.319 28.9016C211.705 29.1035 212.161 29.2043 212.687 29.2043C213.141 29.2043 213.54 29.1341 213.887 28.9934C214.234 28.8528 214.517 28.6494 214.735 28.3834C214.953 28.1175 215.094 27.801 215.16 27.4341H216.353Z" fill="#28272B"/>
<path d="M219.803 23.8382H220.986V30.1577H219.803V23.8382ZM217.025 23.2786H223.764V24.3426H217.025V23.2786Z" fill="#28272B"/>
<path d="M230.448 26.2138V27.2227H225.277V26.2138H230.448ZM226.056 26.7182V29.7909L225.491 29.1121H230.709V30.1577H224.848V26.7182V23.2787H230.664V24.3243H225.491L226.056 23.6456V26.7182Z" fill="#28272B"/>
<path d="M241.296 23.2787V30.1577H240.166V23.6456L240.535 23.6639L237.406 30.1577H236.142L233.015 23.673L233.382 23.6548V30.1577H232.252V23.2787H234.063L237.074 29.635H236.482L239.485 23.2787H241.296Z" fill="#28272B"/>
</svg>